<?xml version="1.0" encoding="UTF-8"?>
<svg id="Layer_1" data-name="Layer 1" xmlns="http://www.w3.org/2000/svg" viewBox="0 0 733.15 183.06">
  <defs>
    <style>
      .cls-1 {
        letter-spacing: 0em;
      }

      .cls-2, .cls-3, .cls-4 {
        fill: #fff;
      }

      .cls-5 {
        letter-spacing: 0em;
      }

      .cls-3 {
        font-family: RussoOne-Regular, 'Russo One';
        font-size: 17.59px;
      }

      .cls-6 {
        letter-spacing: -.02em;
      }

      .cls-4 {
        font-family: Bahnschrift, Bahnschrift;
        font-size: 52.76px;
        font-variation-settings: 'wght' 400, 'wdth' 100;
        stroke-width: .46px;
      }

      .cls-4, .cls-7 {
        stroke: #fff;
        stroke-miterlimit: 10;
      }

      .cls-8 {
        letter-spacing: .16em;
      }

      .cls-9 {
        letter-spacing: .16em;
      }

      .cls-10 {
        letter-spacing: 0em;
      }

      .cls-11 {
        letter-spacing: 0em;
      }

      .cls-12 {
        letter-spacing: -.04em;
      }

      .cls-13, .cls-7 {
        fill: #b71c1c;
      }

      .cls-7 {
        stroke-width: 2.45px;
      }

      .cls-14 {
        letter-spacing: 0em;
      }

      .cls-15 {
        letter-spacing: .04em;
      }

      .cls-16 {
        letter-spacing: .14em;
      }
    </style>
  </defs>
  <path class="cls-7" d="M91.62,67.06c-.22-10.29,2.02-19.57,10.09-26.69,.5,4.18,.67,8.23,1.5,12.14,1.78,8.38,5.53,16.07,9,23.84,3.64,8.15,7.72,16.12,9.92,24.84,9.08,36.01-13.63,72.22-48.53,79.41-17,3.5-32.49-.63-46.26-10.98-13.23-9.94-21.58-23.17-24.83-39.39-2.77-13.82-1-27.24,4.92-40.05,2.5-5.43,5.16-10.78,7.81-16.14,3.92-7.9,7.85-15.79,7.3-25.26,.65,.28,1.12,.36,1.44,.62,4.82,3.95,7.49,9.04,7.98,15.25,.58,7.29-1.35,13.99-5.02,20.57,.46-.2,.75-.25,.95-.41,11.58-9.57,20.17-21.16,23.94-35.91,2.9-11.37,2.15-22.77-.22-34.13-.81-3.88-1.81-7.72-2.47-11.73,20.37,17.19,34.55,38.48,42.49,63.99Zm-27.2,.52c-2.51,13.56-8.55,24.47-18.1,33.49-2.76,2.61-5.44,5.33-7.88,8.23-7.13,8.49-9.86,18.31-7.44,29.16,3.37,15.07,15.82,25.05,31.3,25.5,8.6,.25,16.27-2.36,22.78-8.02,8.83-7.67,12.39-17.49,11.25-29-.21-2.08,.54-3.24,1.88-4.49,4.79-4.47,9.66-8.87,14.25-13.54,5.5-5.59,5.49-14.68,.26-20.33-4.79-5.18-13.53-5.6-19.48-.74-3.14,2.57-6.02,5.45-9.03,8.18-1.87,1.7-3.77,3.37-5.87,5.25-1.14-12.71-6.2-23.43-13.94-33.68Z"/>
  <path class="cls-2" d="M63.98,65.23c8.11,10.74,13.42,21.99,14.62,35.32,2.21-1.97,4.19-3.72,6.16-5.5,3.16-2.86,6.18-5.89,9.47-8.58,6.24-5.09,15.41-4.65,20.43,.78,5.48,5.93,5.49,15.46-.28,21.33-4.82,4.9-9.92,9.52-14.94,14.21-1.41,1.31-2.19,2.52-1.97,4.71,1.2,12.08-2.54,22.38-11.8,30.42-6.83,5.93-14.87,8.68-23.9,8.41-16.24-.47-29.3-10.94-32.83-26.74-2.54-11.38,.32-21.67,7.8-30.58,2.56-3.04,5.37-5.9,8.26-8.63,10.01-9.46,16.35-20.9,18.98-35.12Zm45.11,33.27c-.35-2.72-1.53-4.67-3.91-5.56-2.18-.81-4.07-.14-5.79,1.53-8,7.72-16.08,15.35-24.14,23.02-3.37,3.2-6.74,6.4-10.09,9.61-2.36,2.26-4.7,4.53-7.23,6.98-1.87-2.09-3.67-3.94-5.29-5.94-1.85-2.28-5.47-2.8-7.75-.94-2.95,2.4-3.34,5.67-.72,8.62,2.37,2.67,5.12,4.99,7.56,7.61,3.59,3.85,7.33,3.93,11.19,.2,4.86-4.7,9.76-9.37,14.68-14.01,9.84-9.27,19.73-18.49,29.53-27.81,.54-.51,.47-1.67,.63-2.54,.05-.24-.08-.52-.15-.96,.5,.06,.87,.11,1.5,.2Z"/>
  <path class="cls-13" d="M107.12,101.81c-3.7,4.06-5.92,5.61-7.98,7.55-7.17,6.76-14.37,13.5-21.55,20.25-4.92,4.64-9.82,9.3-14.68,14.01-3.85,3.73-7.6,3.65-11.19-.2-2.43-2.61-5.18-4.94-7.56-7.61-1.96-2.2-2.23-4.59-1.01-6.66,2.33-3.95,6.84-4.22,9.76-.68,1.45,1.76,3.05,3.42,4.7,5.25,.18,.19,.48,.21,.67,.02,2.4-2.32,4.63-4.49,6.89-6.65,3.36-3.21,6.73-6.41,10.09-9.61,8.05-7.66,16.13-15.3,24.14-23.02,1.73-1.66,3.62-2.34,5.79-1.53,.3,.11,1.14,.44,1.95,1.19,.24,.22,1.82,1.73,1.87,3.75,.04,1.78-1.14,3.11-1.88,3.93Z"/>
  <text class="cls-4" transform="translate(151.32 108.85)"><tspan class="cls-14" x="0" y="0">F</tspan><tspan class="cls-1" x="30.01" y="0">IRE RI</tspan><tspan class="cls-5" x="173.56" y="0">S</tspan><tspan class="cls-10" x="205.53" y="0">K </tspan><tspan class="cls-12" x="253.55" y="0">A</tspan><tspan class="cls-6" x="285.65" y="0">S</tspan><tspan class="cls-11" x="317.1" y="0">S</tspan><tspan class="cls-10" x="349.07" y="0">E</tspan><tspan class="cls-6" x="380.61" y="0">S</tspan><tspan class="cls-11" x="412.06" y="0">S</tspan><tspan x="444.03" y="0">ME</tspan><tspan class="cls-15" x="516.68" y="0">N</tspan><tspan x="555.68" y="0">T</tspan></text>
  <text class="cls-3" transform="translate(230.94 141.16)"><tspan class="cls-8" x="0" y="0">PROTECT </tspan><tspan class="cls-16" x="109.65" y="0">Y</tspan><tspan class="cls-9" x="123.9" y="0">OUR PREMISES FROM FIRE</tspan></text>
</svg>