<?xml version="1.0" encoding="utf-8"?>
<!-- Generator: Adobe Illustrator 27.0.0, SVG Export Plug-In . SVG Version: 6.00 Build 0)  -->
<svg version="1.1" id="Layer_1" xmlns="http://www.w3.org/2000/svg" xmlns:xlink="http://www.w3.org/1999/xlink" x="0px" y="0px"
	 viewBox="0 0 180 55" style="enable-background:new 0 0 180 55;" xml:space="preserve">
<style type="text/css">
	.st0{fill:#B71C1C;stroke:#FFFFFF;stroke-width:0.5826;stroke-miterlimit:10;}
	.st1{fill:#FFFFFF;}
	.st2{fill:#B71C1C;}
	.st3{fill:#FFFFFF;stroke:#FFFFFF;stroke-width:0.1087;stroke-miterlimit:10;}
	.st4{font-family:'RussoOne-Regular';}
	.st5{font-size:4.1865px;}
</style>
<path class="st0" d="M24.3,21.5c-0.1-2.4,0.5-4.7,2.4-6.4c0.1,1,0.2,2,0.4,2.9c0.4,2,1.3,3.8,2.1,5.7c0.9,1.9,1.8,3.8,2.4,5.9
	c2.2,8.6-3.2,17.2-11.6,18.9c-4,0.8-7.7-0.1-11-2.6c-3.1-2.4-5.1-5.5-5.9-9.4c-0.7-3.3-0.2-6.5,1.2-9.5c0.6-1.3,1.2-2.6,1.9-3.8
	c0.9-1.9,1.9-3.8,1.7-6c0.2,0.1,0.3,0.1,0.3,0.1c1.1,0.9,1.8,2.2,1.9,3.6c0.1,1.7-0.3,3.3-1.2,4.9c0.1,0,0.2-0.1,0.2-0.1
	c2.8-2.3,4.8-5,5.7-8.5c0.7-2.7,0.5-5.4-0.1-8.1c-0.2-0.9-0.4-1.8-0.6-2.8C19.1,10.4,22.4,15.5,24.3,21.5z M17.9,21.7
	c-0.6,3.2-2,5.8-4.3,8c-0.7,0.6-1.3,1.3-1.9,2c-1.7,2-2.3,4.4-1.8,6.9c0.8,3.6,3.8,6,7.5,6.1c2,0.1,3.9-0.6,5.4-1.9
	c2.1-1.8,3-4.2,2.7-6.9c0-0.5,0.1-0.8,0.4-1.1c1.1-1.1,2.3-2.1,3.4-3.2c1.3-1.3,1.3-3.5,0.1-4.8c-1.1-1.2-3.2-1.3-4.6-0.2
	c-0.7,0.6-1.4,1.3-2.1,1.9c-0.4,0.4-0.9,0.8-1.4,1.2C20.9,26.7,19.7,24.1,17.9,21.7z"/>
<path class="st1" d="M17.8,21.1c1.9,2.6,3.2,5.2,3.5,8.4c0.5-0.5,1-0.9,1.5-1.3c0.8-0.7,1.5-1.4,2.3-2c1.5-1.2,3.7-1.1,4.9,0.2
	c1.3,1.4,1.3,3.7-0.1,5.1c-1.1,1.2-2.4,2.3-3.6,3.4c-0.3,0.3-0.5,0.6-0.5,1.1c0.3,2.9-0.6,5.3-2.8,7.2c-1.6,1.4-3.5,2.1-5.7,2
	c-3.9-0.1-7-2.6-7.8-6.4c-0.6-2.7,0.1-5.2,1.9-7.3c0.6-0.7,1.3-1.4,2-2.1C15.6,27.2,17.1,24.5,17.8,21.1z M28.5,29
	c-0.1-0.6-0.4-1.1-0.9-1.3c-0.5-0.2-1,0-1.4,0.4c-1.9,1.8-3.8,3.7-5.7,5.5c-0.8,0.8-1.6,1.5-2.4,2.3c-0.6,0.5-1.1,1.1-1.7,1.7
	c-0.4-0.5-0.9-0.9-1.3-1.4c-0.4-0.5-1.3-0.7-1.8-0.2c-0.7,0.6-0.8,1.4-0.2,2.1c0.6,0.6,1.2,1.2,1.8,1.8c0.9,0.9,1.7,0.9,2.7,0
	c1.2-1.1,2.3-2.2,3.5-3.3c2.3-2.2,4.7-4.4,7-6.6c0.1-0.1,0.1-0.4,0.2-0.6c0-0.1,0-0.1,0-0.2C28.3,29,28.4,29,28.5,29z"/>
<path class="st2" d="M28,29.8c-0.9,1-1.4,1.3-1.9,1.8c-1.7,1.6-3.4,3.2-5.1,4.8c-1.2,1.1-2.3,2.2-3.5,3.3c-0.9,0.9-1.8,0.9-2.7,0
	c-0.6-0.6-1.2-1.2-1.8-1.8c-0.5-0.5-0.5-1.1-0.2-1.6c0.6-0.9,1.6-1,2.3-0.2c0.3,0.4,0.7,0.8,1.1,1.2c0,0,0.1,0,0.2,0
	c0.6-0.6,1.1-1.1,1.6-1.6c0.8-0.8,1.6-1.5,2.4-2.3c1.9-1.8,3.8-3.6,5.7-5.5c0.4-0.4,0.9-0.6,1.4-0.4c0.1,0,0.3,0.1,0.5,0.3
	c0.1,0.1,0.4,0.4,0.4,0.9C28.5,29.3,28.2,29.6,28,29.8z"/>
<g>
	<g>
		<path class="st3" d="M39.7,22.6h1.3v8.9h-1.3V22.6z M40.3,22.6h5v1.2h-5V22.6z M40.3,26.5h4.3v1.2h-4.3V26.5z"/>
		<path class="st3" d="M47.9,31.5h-1.3v-8.9h1.3V31.5z"/>
		<path class="st3" d="M50.1,22.6h1.3v8.9h-1.3V22.6z M50.7,26.5h3c0.2,0,0.4-0.1,0.6-0.2c0.2-0.1,0.3-0.3,0.4-0.5
			c0.1-0.2,0.2-0.5,0.2-0.7s0-0.5-0.2-0.7c-0.1-0.2-0.2-0.4-0.4-0.5c-0.2-0.1-0.4-0.2-0.6-0.2h-3v-1.2h3c0.5,0,1,0.1,1.4,0.3
			c0.4,0.2,0.7,0.5,0.9,0.9c0.2,0.4,0.3,0.8,0.3,1.4s-0.1,1-0.3,1.4c-0.2,0.4-0.5,0.7-0.9,0.9c-0.4,0.2-0.8,0.3-1.4,0.3h-3V26.5z
			 M53.1,27.4l1.2-0.3l2.3,4.3h-1.5L53.1,27.4z"/>
		<path class="st3" d="M58.3,22.6h1.3v8.9h-1.3V22.6z M58.9,22.6h5.1v1.2h-5.1V22.6z M58.9,26.5h4.4v1.2h-4.4V26.5z M58.9,30.3h5.1
			v1.2h-5.1V30.3z"/>
		<path class="st3" d="M69.2,22.6h1.3v8.9h-1.3V22.6z M69.7,26.5h3c0.2,0,0.4-0.1,0.6-0.2c0.2-0.1,0.3-0.3,0.4-0.5
			c0.1-0.2,0.2-0.5,0.2-0.7s0-0.5-0.2-0.7c-0.1-0.2-0.2-0.4-0.4-0.5c-0.2-0.1-0.4-0.2-0.6-0.2h-3v-1.2h3c0.5,0,1,0.1,1.4,0.3
			c0.4,0.2,0.7,0.5,0.9,0.9c0.2,0.4,0.3,0.8,0.3,1.4s-0.1,1-0.3,1.4c-0.2,0.4-0.5,0.7-0.9,0.9c-0.4,0.2-0.8,0.3-1.4,0.3h-3V26.5z
			 M72.2,27.4l1.2-0.3l2.3,4.3h-1.5L72.2,27.4z"/>
		<path class="st3" d="M78.6,31.5h-1.3v-8.9h1.3V31.5z"/>
		<path class="st3" d="M82.3,31.5c-0.4-0.1-0.7-0.2-1.1-0.4c-0.3-0.2-0.6-0.4-0.9-0.6l0.8-1c0.3,0.3,0.7,0.5,1.1,0.7
			c0.4,0.1,0.9,0.2,1.3,0.2c0.6,0,1.1-0.1,1.5-0.4c0.4-0.2,0.5-0.6,0.5-1v0c0-0.3-0.1-0.6-0.2-0.7c-0.2-0.2-0.4-0.3-0.6-0.4
			c-0.3-0.1-0.6-0.2-1-0.2c0,0,0,0,0,0c0,0,0,0,0,0l-0.1,0c-0.6-0.1-1.1-0.2-1.5-0.3c-0.4-0.1-0.7-0.4-1-0.7s-0.4-0.8-0.4-1.5v0
			c0-0.6,0.1-1,0.4-1.4c0.2-0.4,0.6-0.7,1.1-0.9c0.5-0.2,1-0.3,1.7-0.3c0.3,0,0.6,0,0.9,0.1c0.3,0.1,0.6,0.2,0.9,0.3
			c0.3,0.1,0.6,0.3,0.9,0.5l-0.7,1c-0.3-0.2-0.7-0.4-1-0.6c-0.3-0.1-0.7-0.2-1-0.2c-0.6,0-1.1,0.1-1.4,0.4s-0.5,0.6-0.5,1v0
			c0,0.3,0.1,0.5,0.3,0.7s0.4,0.3,0.6,0.4c0.3,0.1,0.6,0.2,1.1,0.3c0,0,0,0,0,0s0,0,0,0c0,0,0,0,0.1,0c0,0,0,0,0.1,0
			c0.5,0.1,1,0.2,1.4,0.4s0.7,0.4,0.9,0.7c0.2,0.3,0.4,0.8,0.4,1.4v0c0,0.5-0.1,1-0.4,1.4c-0.3,0.4-0.6,0.7-1.1,0.9
			c-0.5,0.2-1.1,0.3-1.8,0.3C83.1,31.6,82.7,31.5,82.3,31.5z"/>
		<path class="st3" d="M88.6,22.6h1.3v8.9h-1.3V22.6z M89.6,27.6l3.9-5H95l-5.7,6.9L89.6,27.6z M91,26.7l1-0.9l3.4,5.7h-1.5L91,26.7
			z"/>
		<path class="st3" d="M102.4,22.6h1.1l3.3,8.9h-1.3l-2.5-7.2l-2.5,7.2h-1.3L102.4,22.6z M100.7,28.3h4.7v1.2h-4.7V28.3z"/>
		<path class="st3" d="M109.6,31.5c-0.4-0.1-0.7-0.2-1.1-0.4c-0.3-0.2-0.6-0.4-0.9-0.6l0.8-1c0.3,0.3,0.7,0.5,1.1,0.7
			c0.4,0.1,0.9,0.2,1.3,0.2c0.6,0,1.1-0.1,1.5-0.4s0.5-0.6,0.5-1v0c0-0.3-0.1-0.6-0.2-0.7c-0.2-0.2-0.4-0.3-0.6-0.4
			c-0.3-0.1-0.6-0.2-1-0.2c0,0,0,0,0,0c0,0,0,0,0,0l-0.1,0c-0.6-0.1-1.1-0.2-1.5-0.3c-0.4-0.1-0.7-0.4-1-0.7
			c-0.3-0.3-0.4-0.8-0.4-1.5v0c0-0.6,0.1-1,0.4-1.4c0.2-0.4,0.6-0.7,1.1-0.9c0.5-0.2,1-0.3,1.7-0.3c0.3,0,0.6,0,0.9,0.1
			c0.3,0.1,0.6,0.2,0.9,0.3c0.3,0.1,0.6,0.3,0.9,0.5l-0.7,1c-0.3-0.2-0.7-0.4-1-0.6c-0.3-0.1-0.7-0.2-1-0.2c-0.6,0-1.1,0.1-1.4,0.4
			s-0.5,0.6-0.5,1v0c0,0.3,0.1,0.5,0.3,0.7s0.4,0.3,0.7,0.4c0.3,0.1,0.6,0.2,1.1,0.3c0,0,0,0,0,0s0,0,0,0c0,0,0,0,0.1,0s0,0,0.1,0
			c0.5,0.1,1,0.2,1.4,0.4c0.4,0.2,0.7,0.4,0.9,0.7c0.2,0.3,0.4,0.8,0.4,1.4v0c0,0.5-0.1,1-0.4,1.4c-0.3,0.4-0.6,0.7-1.1,0.9
			c-0.5,0.2-1.1,0.3-1.8,0.3C110.4,31.6,110,31.5,109.6,31.5z"/>
		<path class="st3" d="M117.3,31.5c-0.4-0.1-0.7-0.2-1.1-0.4c-0.3-0.2-0.6-0.4-0.9-0.6l0.8-1c0.3,0.3,0.7,0.5,1.1,0.7
			c0.4,0.1,0.9,0.2,1.3,0.2c0.6,0,1.1-0.1,1.5-0.4s0.5-0.6,0.5-1v0c0-0.3-0.1-0.6-0.2-0.7c-0.2-0.2-0.4-0.3-0.6-0.4
			c-0.3-0.1-0.6-0.2-1-0.2c0,0,0,0,0,0c0,0,0,0,0,0l-0.1,0c-0.6-0.1-1.1-0.2-1.5-0.3c-0.4-0.1-0.7-0.4-1-0.7
			c-0.3-0.3-0.4-0.8-0.4-1.5v0c0-0.6,0.1-1,0.4-1.4c0.2-0.4,0.6-0.7,1.1-0.9c0.5-0.2,1-0.3,1.7-0.3c0.3,0,0.6,0,0.9,0.1
			c0.3,0.1,0.6,0.2,0.9,0.3c0.3,0.1,0.6,0.3,0.9,0.5l-0.7,1c-0.3-0.2-0.7-0.4-1-0.6c-0.3-0.1-0.7-0.2-1-0.2c-0.6,0-1.1,0.1-1.4,0.4
			s-0.5,0.6-0.5,1v0c0,0.3,0.1,0.5,0.3,0.7s0.4,0.3,0.7,0.4c0.3,0.1,0.6,0.2,1.1,0.3c0,0,0,0,0,0s0,0,0,0c0,0,0,0,0.1,0s0,0,0.1,0
			c0.5,0.1,1,0.2,1.4,0.4c0.4,0.2,0.7,0.4,0.9,0.7c0.2,0.3,0.4,0.8,0.4,1.4v0c0,0.5-0.1,1-0.4,1.4c-0.3,0.4-0.6,0.7-1.1,0.9
			c-0.5,0.2-1.1,0.3-1.8,0.3C118.1,31.6,117.7,31.5,117.3,31.5z"/>
		<path class="st3" d="M123.6,22.6h1.3v8.9h-1.3V22.6z M124.2,22.6h5.1v1.2h-5.1V22.6z M124.2,26.5h4.4v1.2h-4.4V26.5z M124.2,30.3
			h5.1v1.2h-5.1V30.3z"/>
		<path class="st3" d="M132.6,31.5c-0.4-0.1-0.7-0.2-1.1-0.4c-0.3-0.2-0.6-0.4-0.9-0.6l0.8-1c0.3,0.3,0.7,0.5,1.1,0.7
			c0.4,0.1,0.9,0.2,1.3,0.2c0.6,0,1.1-0.1,1.5-0.4s0.5-0.6,0.5-1v0c0-0.3-0.1-0.6-0.2-0.7c-0.2-0.2-0.4-0.3-0.6-0.4
			c-0.3-0.1-0.6-0.2-1-0.2c0,0,0,0,0,0c0,0,0,0,0,0l-0.1,0c-0.6-0.1-1.1-0.2-1.5-0.3c-0.4-0.1-0.7-0.4-1-0.7
			c-0.3-0.3-0.4-0.8-0.4-1.5v0c0-0.6,0.1-1,0.4-1.4c0.2-0.4,0.6-0.7,1.1-0.9c0.5-0.2,1-0.3,1.7-0.3c0.3,0,0.6,0,0.9,0.1
			c0.3,0.1,0.6,0.2,0.9,0.3c0.3,0.1,0.6,0.3,0.9,0.5l-0.7,1c-0.3-0.2-0.7-0.4-1-0.6c-0.3-0.1-0.7-0.2-1-0.2c-0.6,0-1.1,0.1-1.4,0.4
			s-0.5,0.6-0.5,1v0c0,0.3,0.1,0.5,0.3,0.7s0.4,0.3,0.7,0.4c0.3,0.1,0.6,0.2,1.1,0.3c0,0,0,0,0,0s0,0,0,0c0,0,0,0,0.1,0s0,0,0.1,0
			c0.5,0.1,1,0.2,1.4,0.4c0.4,0.2,0.7,0.4,0.9,0.7c0.2,0.3,0.4,0.8,0.4,1.4v0c0,0.5-0.1,1-0.4,1.4c-0.3,0.4-0.6,0.7-1.1,0.9
			c-0.5,0.2-1.1,0.3-1.8,0.3C133.4,31.6,133,31.5,132.6,31.5z"/>
		<path class="st3" d="M140.3,31.5c-0.4-0.1-0.7-0.2-1.1-0.4c-0.3-0.2-0.6-0.4-0.9-0.6l0.8-1c0.3,0.3,0.7,0.5,1.1,0.7
			c0.4,0.1,0.9,0.2,1.3,0.2c0.6,0,1.1-0.1,1.5-0.4s0.5-0.6,0.5-1v0c0-0.3-0.1-0.6-0.2-0.7c-0.2-0.2-0.4-0.3-0.6-0.4
			c-0.3-0.1-0.6-0.2-1-0.2c0,0,0,0,0,0c0,0,0,0,0,0l-0.1,0c-0.6-0.1-1.1-0.2-1.5-0.3c-0.4-0.1-0.7-0.4-1-0.7
			c-0.3-0.3-0.4-0.8-0.4-1.5v0c0-0.6,0.1-1,0.4-1.4c0.2-0.4,0.6-0.7,1.1-0.9c0.5-0.2,1-0.3,1.7-0.3c0.3,0,0.6,0,0.9,0.1
			c0.3,0.1,0.6,0.2,0.9,0.3c0.3,0.1,0.6,0.3,0.9,0.5l-0.7,1c-0.3-0.2-0.7-0.4-1-0.6c-0.3-0.1-0.7-0.2-1-0.2c-0.6,0-1.1,0.1-1.4,0.4
			s-0.5,0.6-0.5,1v0c0,0.3,0.1,0.5,0.3,0.7s0.4,0.3,0.7,0.4c0.3,0.1,0.6,0.2,1.1,0.3c0,0,0,0,0,0s0,0,0,0c0,0,0,0,0.1,0s0,0,0.1,0
			c0.5,0.1,1,0.2,1.4,0.4c0.4,0.2,0.7,0.4,0.9,0.7c0.2,0.3,0.4,0.8,0.4,1.4v0c0,0.5-0.1,1-0.4,1.4c-0.3,0.4-0.6,0.7-1.1,0.9
			c-0.5,0.2-1.1,0.3-1.8,0.3C141.1,31.6,140.7,31.5,140.3,31.5z"/>
		<path class="st3" d="M153,22.6h1.2v8.9h-1.2v-6.7l0.1,0.4l-2.2,5h-0.9l-2.2-4.9l0.1-0.5v6.7h-1.2v-8.9h1.2l2.6,5.9L153,22.6z"/>
		<path class="st3" d="M156.4,22.6h1.3v8.9h-1.3V22.6z M157,22.6h5.1v1.2H157V22.6z M157,26.5h4.4v1.2H157V26.5z M157,30.3h5.1v1.2
			H157V30.3z"/>
		<path class="st3" d="M163.9,22.6h1.1l4.4,6.9l-0.1,0.2v-7.1h1.2v8.9h-1.1l-4.3-6.8l0.1-0.2v6.9h-1.2V22.6z"/>
		<path class="st3" d="M171.4,22.6h6.3v1.2h-6.3V22.6z M174,23.3h1.3v8.2H174V23.3z"/>
	</g>
</g>
<text transform="matrix(1 0 0 1 57.5049 39.1797)" class="st1 st4 st5">Protect Your Premises From Fire</text>
</svg>
